<svg width="1600" height="900" viewBox="0 0 1600 900" fill="none" xmlns="http://www.w3.org/2000/svg">
  <defs>
    <linearGradient id="bg" x1="60" y1="120" x2="1400" y2="860" gradientUnits="userSpaceOnUse">
      <stop stop-color="#041A2A" />
      <stop offset="1" stop-color="#284F74" />
    </linearGradient>
    <linearGradient id="card" x1="0" y1="0" x2="1" y2="1">
      <stop stop-color="#FCF2DA" />
      <stop offset="1" stop-color="#D5C098" />
    </linearGradient>
    <linearGradient id="accent" x1="0" y1="0" x2="1" y2="1">
      <stop stop-color="#55E1D9" />
      <stop offset="1" stop-color="#2AB1B0" />
    </linearGradient>
  </defs>

  <rect width="1600" height="900" fill="url(#bg)" />

  <circle cx="1300" cy="140" r="220" fill="#FFFFFF" fill-opacity="0.08" />
  <circle cx="180" cy="760" r="180" fill="#FFFFFF" fill-opacity="0.07" />

  <rect x="560" y="150" width="520" height="620" rx="44" fill="url(#card)" transform="rotate(-8 560 150)" />
  <rect x="610" y="210" width="440" height="460" rx="30" fill="#13293D" transform="rotate(-8 610 210)" />

  <path d="M810 282C927 282 1022 372 1022 483C1022 594 927 684 810 684C693 684 598 594 598 483C598 372 693 282 810 282Z" fill="url(#accent)" fill-opacity="0.8" />

  <path d="M782 365C839 365 886 411 886 468V526H678V468C678 411 725 365 782 365Z" fill="#F6D58D" />
  <rect x="662" y="526" width="250" height="116" rx="26" fill="#E7B971" />

  <rect x="270" y="278" width="190" height="190" rx="30" fill="#FFFFFF" fill-opacity="0.09" />
  <rect x="1180" y="380" width="230" height="230" rx="36" fill="#FFFFFF" fill-opacity="0.09" />

  <text x="170" y="180" fill="#EAF4FF" font-size="68" font-family="Arial, Helvetica, sans-serif" font-weight="700">3D HERO</text>
</svg>
